HIERARCHY
ROOT joint_Root
{
	OFFSET 0.0 0.0 0.0
	CHANNELS 6 Xposition Yposition Zposition Zrotation Xrotation Yrotation 
	JOINT Hips
	{
		OFFSET 4.5925 91.4895 -427.239
		CHANNELS 6 Xposition Yposition Zposition Zrotation Xrotation Yrotation 
		JOINT Spine
		{
			OFFSET 15.7357 0.0 0.0
			CHANNELS 6 Xposition Yposition Zposition Zrotation Xrotation Yrotation 
			JOINT Chest
			{
				OFFSET 8.98455 -0.406207 0.0
				CHANNELS 6 Xposition Yposition Zposition Zrotation Xrotation Yrotation 
				JOINT Neck
				{
					OFFSET 16.3773 0.0 0.0
					CHANNELS 6 Xposition Yposition Zposition Zrotation Xrotation Yrotation 
					JOINT Head
					{
						OFFSET 6.45672 0.0 0.0
						CHANNELS 6 Xposition Yposition Zposition Zrotation Xrotation Yrotation 
						End Site
						{
							OFFSET 0.0 0.0 0.0
						}
					}
				}
				JOINT Shoulder_L
				{
					OFFSET 12.9942 -0.242716 4.98039
					CHANNELS 6 Xposition Yposition Zposition Zrotation Xrotation Yrotation 
					JOINT UpperArm_L
					{
						OFFSET 5.34809 0.0 0.0
						CHANNELS 6 Xposition Yposition Zposition Zrotation Xrotation Yrotation 
						JOINT LowerArm_L
						{
							OFFSET 24.3286 1.87007e-05 0.0
							CHANNELS 6 Xposition Yposition Zposition Zrotation Xrotation Yrotation 
							JOINT Hand_L
							{
								OFFSET 22.2916 0.0 0.0
								CHANNELS 6 Xposition Yposition Zposition Zrotation Xrotation Yrotation 
								End Site
								{
									OFFSET 0.0 0.0 0.0
								}
							}
						}
					}
				}
				JOINT Shoulder_R
				{
					OFFSET 12.9945 -0.242716 -4.98039
					CHANNELS 6 Xposition Yposition Zposition Zrotation Xrotation Yrotation 
					JOINT UpperArm_R
					{
						OFFSET -5.34813 0.0 0.0
						CHANNELS 6 Xposition Yposition Zposition Zrotation Xrotation Yrotation 
						JOINT LowerArm_R
						{
							OFFSET -24.3289 0.000322201 0.0
							CHANNELS 6 Xposition Yposition Zposition Zrotation Xrotation Yrotation 
							JOINT Hand_R
							{
								OFFSET -22.2915 -0.000108084 0.0
								CHANNELS 6 Xposition Yposition Zposition Zrotation Xrotation Yrotation 
								End Site
								{
									OFFSET 0.0 0.0 0.0
								}
							}
						}
					}
				}
			}
		}
		JOINT UpperLeg_L
		{
			OFFSET -2.19248 -6.46944 0.0
			CHANNELS 6 Xposition Yposition Zposition Zrotation Xrotation Yrotation 
			JOINT LowerLeg_L
			{
				OFFSET 39.0811 0.0 -1.23785e-05
				CHANNELS 6 Xposition Yposition Zposition Zrotation Xrotation Yrotation 
				JOINT Foot_L
				{
					OFFSET 40.9854 0.0 -1.26872e-05
					CHANNELS 6 Xposition Yposition Zposition Zrotation Xrotation Yrotation 
					JOINT Toes_L
					{
						OFFSET 11.7543 0.0 0.0
						CHANNELS 6 Xposition Yposition Zposition Zrotation Xrotation Yrotation 
						End Site
						{
							OFFSET 0.0 0.0 0.0
						}
					}
				}
			}
		}
		JOINT UpperLeg_R
		{
			OFFSET -2.19251 6.46944 0.0
			CHANNELS 6 Xposition Yposition Zposition Zrotation Xrotation Yrotation 
			JOINT LowerLeg_R
			{
				OFFSET -39.0811 -0.00228153 -0.0401928
				CHANNELS 6 Xposition Yposition Zposition Zrotation Xrotation Yrotation 
				JOINT Foot_R
				{
					OFFSET -40.9854 0.0 0.0
					CHANNELS 6 Xposition Yposition Zposition Zrotation Xrotation Yrotation 
					JOINT Toes_R
					{
						OFFSET -11.7543 0.0 0.0
						CHANNELS 6 Xposition Yposition Zposition Zrotation Xrotation Yrotation 
						End Site
						{
							OFFSET 0.0 0.0 0.0
						}
					}
				}
			}
		}
	}
}
MOTION
Frames:	8
Frame Time:	0.0333333
0.000000 0.000000 0.000000 0.000000 0.000000 -0.000000 137.268000 85.726300 -172.719000 88.712700 1.544430 -3.994250 15.735700 0.000005 -0.000001 95.546900 83.227600 -97.451000 8.984550 -0.406207 -0.000000 5.741680 1.339560 -3.871310 16.377300 -0.000001 -0.000001 -1.638360 -6.779710 0.353088 6.456720 -0.000001 -0.000000 -3.820830 -10.394600 2.972990 12.994200 -0.242716 4.980390 -91.028300 2.827030 -70.005600 5.348090 -0.000007 -0.000001 -69.218700 32.688900 -19.127700 24.328600 0.000019 0.000005 15.494100 -1.048990 -93.782300 22.291600 -0.000001 0.000005 7.716490 5.517730 -7.265450 12.994500 -0.242716 -4.980390 88.273500 8.619290 -78.625100 -5.348130 -0.000001 -0.000004 -65.773500 39.701600 14.804300 -24.328900 0.000322 -0.000009 -10.963600 -6.264020 -60.600700 -22.291500 -0.000108 -0.000004 13.737700 5.528510 -7.738620 -2.192480 -6.469440 -0.000000 179.810000 -6.127770 -33.416000 39.081100 -0.000007 -0.000012 -0.315436 0.239346 52.810400 40.985400 -0.000006 -0.000013 1.181790 -2.372840 -73.936200 11.754300 -0.000000 0.000003 -0.000000 -0.000000 -16.577500 -2.192510 6.469440 -0.000001 173.287000 8.190430 172.940000 -39.081100 -0.002282 -0.040193 0.327281 -0.163360 63.250400 -40.985400 0.000008 0.000006 -0.309538 7.584450 -25.113400 -11.754300 -0.000006 -0.000006 -0.023330 -0.185081 -24.141700
0.000000 0.000000 0.000000 0.000000 0.000000 -0.000000 138.028000 87.413800 -168.400000 88.770400 3.701160 -3.440800 15.735700 0.000005 -0.000001 81.645000 83.133500 -83.131600 8.984550 -0.406207 -0.000000 5.800050 -1.964920 -2.870420 16.377300 -0.000001 -0.000001 -0.876076 -6.079930 0.088012 6.456720 -0.000001 -0.000000 -3.974920 -7.175170 1.799280 12.994200 -0.242716 4.980390 -90.041400 0.119203 -70.910000 5.348090 -0.000007 -0.000001 -65.658700 36.855200 -28.349300 24.328600 0.000019 0.000005 10.982300 -2.281310 -101.604000 22.291600 -0.000001 0.000005 7.331860 5.531230 -7.849180 12.994500 -0.242716 -4.980390 88.697700 5.629100 -76.948300 -5.348130 -0.000001 -0.000004 -66.057500 44.098000 21.483800 -24.328900 0.000322 -0.000009 -12.336300 -5.285100 -67.161100 -22.291500 -0.000108 -0.000004 10.876800 5.549950 -8.708580 -2.192480 -6.469440 -0.000000 179.740000 -5.532440 -26.653400 39.081100 -0.000007 -0.000012 -0.253115 0.234267 47.215300 40.985400 -0.000006 -0.000013 1.847110 -1.045240 -74.735600 11.754300 -0.000000 0.000003 -0.000279 -0.004573 -16.763200 -2.192510 6.469440 -0.000001 174.655000 8.974600 165.802000 -39.081100 -0.002282 -0.040193 0.302756 -0.098909 71.734000 -40.985400 0.000008 0.000006 4.087090 2.663900 -30.072900 -11.754300 -0.000006 -0.000006 -0.025490 -0.195998 -24.592800
0.000000 0.000000 0.000000 0.000000 0.000000 -0.000000 138.705000 89.487900 -163.731000 88.251300 4.089480 -1.924300 15.735700 0.000005 -0.000001 73.841700 82.479400 -74.840300 8.984550 -0.406207 -0.000000 6.658890 -4.162950 -1.753300 16.377300 -0.000001 -0.000001 -0.429587 -5.531900 0.139064 6.456720 -0.000001 -0.000000 -3.564120 -4.414450 0.945268 12.994200 -0.242716 4.980390 -89.345300 -1.980650 -71.701900 5.348090 -0.000007 -0.000001 -60.343200 37.778300 -35.638200 24.328600 0.000019 0.000005 7.082510 -2.480210 -109.211000 22.291600 -0.000001 0.000005 7.351680 5.530380 -7.811530 12.994500 -0.242716 -4.980390 89.251600 2.939500 -75.705100 -5.348130 -0.000001 -0.000004 -66.272000 46.068000 26.092600 -24.328900 0.000322 -0.000009 -11.311100 -3.395840 -73.504600 -22.291500 -0.000108 -0.000004 9.534880 5.553640 -8.879020 -2.192480 -6.469440 -0.000000 -179.407000 -7.261330 -16.985600 39.081100 -0.000007 -0.000012 -0.175562 0.221477 38.403900 40.985400 -0.000006 -0.000013 2.346140 0.820630 -74.480600 11.754300 -0.000000 0.000003 -0.001086 -0.016624 -17.252800 -2.192510 6.469440 -0.000001 176.628000 7.933690 161.214000 -39.081100 -0.002282 -0.040193 0.180232 -0.046873 75.183900 -40.985400 0.000008 0.000006 8.206320 1.885910 -40.914100 -11.754300 -0.000006 -0.000006 -0.024090 -0.188971 -24.302300
0.000000 0.000000 0.000000 0.000000 0.000000 -0.000000 139.021000 91.263600 -159.475000 85.940300 4.548700 -2.609170 15.735700 0.000005 -0.000001 67.198800 82.480200 -66.984000 8.984550 -0.406207 -0.000000 6.133790 -5.815420 0.741227 16.377300 -0.000001 -0.000001 0.122324 -5.024690 0.323546 6.456720 -0.000001 -0.000000 -2.902710 -2.443700 0.453398 12.994200 -0.242716 4.980390 -88.770400 -3.795850 -72.034700 5.348090 -0.000007 -0.000001 -56.239600 37.241900 -40.781800 24.328600 0.000019 0.000005 5.440950 -2.544440 -114.989000 22.291600 -0.000001 0.000005 6.974960 5.520770 -7.395560 12.994500 -0.242716 -4.980390 89.964800 0.130570 -74.826900 -5.348130 -0.000001 -0.000004 -66.955400 45.786200 29.512200 -24.328900 0.000322 -0.000009 -10.725900 -2.123220 -78.930900 -22.291500 -0.000108 -0.000004 9.965250 5.549110 -8.663740 -2.192480 -6.469440 -0.000000 -176.801000 -8.867600 -9.888180 39.081100 -0.000007 -0.000012 -0.050117 0.090610 28.947400 40.985400 -0.000006 -0.000013 3.956970 2.181680 -73.492000 11.754300 -0.000000 0.000003 -0.002020 -0.028970 -17.754800 -2.192510 6.469440 -0.000001 -179.082000 6.804380 154.542000 -39.081100 -0.002282 -0.040193 0.119186 -0.032774 74.241500 -40.985400 0.000008 0.000006 6.248820 -1.622390 -45.798100 -11.754300 -0.000006 -0.000006 -0.022801 -0.182335 -24.028300
0.000000 0.000000 0.000000 0.000000 0.000000 -0.000000 139.326000 92.384500 -155.609000 83.951200 4.952350 -4.480740 15.735700 0.000005 -0.000001 60.864500 82.823900 -59.485300 8.984550 -0.406207 -0.000000 4.885430 -7.009040 3.057340 16.377300 -0.000001 -0.000001 0.809481 -4.783000 0.647824 6.456720 -0.000001 -0.000000 -2.292200 -0.974873 0.420280 12.994200 -0.242716 4.980390 -88.143600 -5.812420 -72.253300 5.348090 -0.000007 -0.000001 -53.769300 36.249700 -44.167100 24.328600 0.000019 0.000005 4.502400 -2.489240 -118.883000 22.291600 -0.000001 0.000005 6.628290 5.504980 -6.734090 12.994500 -0.242716 -4.980390 90.705400 -2.428850 -73.801000 -5.348130 -0.000001 -0.000004 -67.414600 44.256800 31.423500 -24.328900 0.000322 -0.000009 -10.675800 -1.188260 -83.721200 -22.291500 -0.000108 -0.000004 10.271200 5.535110 -8.023500 -2.192480 -6.469440 -0.000000 -174.730000 -9.729210 -5.977110 39.081100 -0.000007 -0.000012 0.006612 -0.016232 22.163700 40.985400 -0.000006 -0.000013 5.133510 3.043350 -71.209800 11.754300 -0.000000 0.000003 -0.003277 -0.043705 -18.354300 -2.192510 6.469440 -0.000001 -175.108000 5.655450 147.803000 -39.081100 -0.002282 -0.040193 0.050082 -0.017073 70.024400 -40.985400 0.000008 0.000006 6.946440 -3.227160 -50.429100 -11.754300 -0.000006 -0.000006 -0.022485 -0.180686 -23.960200
0.000000 0.000000 0.000000 0.000000 0.000000 -0.000000 139.650000 92.826300 -151.765000 83.431300 5.100410 -5.692400 15.735700 0.000005 -0.000001 56.051600 82.878700 -54.120300 8.984550 -0.406207 -0.000000 4.220700 -8.001330 4.158570 16.377300 -0.000001 -0.000001 1.395980 -4.388280 1.179860 6.456720 -0.000001 -0.000000 -2.183500 0.060548 0.933259 12.994200 -0.242716 4.980390 -87.636100 -7.339700 -72.092600 5.348090 -0.000007 -0.000001 -51.319300 35.033000 -47.036200 24.328600 0.000019 0.000005 3.797120 -2.284810 -120.994000 22.291600 -0.000001 0.000005 7.001790 5.490250 -6.146350 12.994500 -0.242716 -4.980390 91.171600 -3.823190 -72.948000 -5.348130 -0.000001 -0.000004 -67.196300 42.252600 31.667200 -24.328900 0.000322 -0.000009 -9.934210 -0.401114 -87.710400 -22.291500 -0.000108 -0.000004 10.659000 5.520440 -7.380840 -2.192480 -6.469440 -0.000000 -173.724000 -12.129300 -2.884030 39.081100 -0.000007 -0.000012 -0.002334 0.007019 18.388800 40.985400 -0.000006 -0.000013 4.975850 5.427010 -68.994100 11.754300 -0.000000 0.000003 -0.005160 -0.063009 -19.140600 -2.192510 6.469440 -0.000001 -173.297000 4.460210 143.413000 -39.081100 -0.002282 -0.040193 0.015403 -0.006326 62.630100 -40.985400 0.000008 0.000006 6.176270 -2.964270 -55.267100 -11.754300 -0.000006 -0.000006 -0.023358 -0.185227 -24.147700
0.000000 0.000000 0.000000 0.000000 0.000000 -0.000000 140.195000 92.404800 -147.866000 84.157700 4.898330 -6.107980 15.735700 0.000005 -0.000001 53.449000 82.739600 -51.532500 8.984550 -0.406207 -0.000000 4.086600 -8.696690 4.145280 16.377300 -0.000001 -0.000001 1.891780 -3.984820 1.628500 6.456720 -0.000001 -0.000000 -2.535200 0.541170 2.042240 12.994200 -0.242716 4.980390 -87.405700 -7.942800 -71.845900 5.348090 -0.000007 -0.000001 -48.840100 33.860300 -48.894300 24.328600 0.000019 0.000005 2.664200 -1.645820 -121.684000 22.291600 -0.000001 0.000005 7.370430 5.484890 -5.936490 12.994500 -0.242716 -4.980390 91.171500 -3.735590 -72.574100 -5.348130 -0.000001 -0.000004 -66.643000 39.633300 30.816800 -24.328900 0.000322 -0.000009 -9.404140 0.093874 -90.565100 -22.291500 -0.000108 -0.000004 10.933700 5.515850 -7.185970 -2.192480 -6.469440 -0.000000 -173.763000 -14.559200 -0.236449 39.081100 -0.000007 -0.000012 -0.009429 0.029326 17.823500 40.985400 -0.000006 -0.000013 4.816150 7.702780 -68.752300 11.754300 -0.000000 0.000003 -0.008219 -0.089825 -20.234700 -2.192510 6.469440 -0.000001 -173.054000 4.385140 141.085000 -39.081100 -0.002282 -0.040193 0.004495 -0.000956 52.757500 -40.985400 0.000008 0.000006 5.145210 -0.835050 -57.426100 -11.754300 -0.000006 -0.000006 -0.025068 -0.193897 -24.505900
0.000000 0.000000 0.000000 0.000000 0.000000 -0.000000 140.700000 91.292100 -143.771000 85.229700 5.056750 -5.751470 15.735700 0.000005 -0.000001 52.702500 82.351100 -50.974100 8.984550 -0.406207 -0.000000 4.595460 -9.301630 3.832760 16.377300 -0.000001 -0.000001 1.708000 -3.763840 1.907890 6.456720 -0.000001 -0.000000 -3.103530 0.753708 3.385570 12.994200 -0.242716 4.980390 -87.577100 -7.363240 -71.729200 5.348090 -0.000007 -0.000001 -46.736000 33.263100 -49.425200 24.328600 0.000019 0.000005 1.846860 -1.110110 -121.001000 22.291600 -0.000001 0.000005 7.455230 5.484680 -5.928540 12.994500 -0.242716 -4.980390 90.711600 -2.245010 -72.408900 -5.348130 -0.000001 -0.000004 -65.972600 36.403900 28.724300 -24.328900 0.000322 -0.000009 -9.458320 0.266367 -91.596800 -22.291500 -0.000108 -0.000004 11.816500 5.517520 -7.255560 -2.192480 -6.469440 -0.000000 -173.883000 -13.980900 2.226310 39.081100 -0.000007 -0.000012 -0.018232 0.050904 19.705400 40.985400 -0.000006 -0.000013 4.166280 8.379530 -70.191900 11.754300 -0.000000 0.000003 -0.015107 -0.138504 -22.228000 -2.192510 6.469440 -0.000001 -172.283000 6.938930 140.465000 -39.081100 -0.002282 -0.040193 -0.000394 0.004124 41.649900 -40.985400 0.000008 0.000006 2.785730 2.485570 -58.521900 -11.754300 -0.000006 -0.000006 -0.025042 -0.193765 -24.500500
